<svg width="256" height="256" viewBox="0 0 256 256" xmlns="http://www.w3.org/2000/svg">
  <defs>
    <linearGradient id="grad1" x1="0%" y1="0%" x2="100%" y2="100%">
      <stop offset="0%" style="stop-color:#4F46E5;stop-opacity:1" />
      <stop offset="100%" style="stop-color:#7C3AED;stop-opacity:1" />
    </linearGradient>
  </defs>
  
  <!-- 背景圆形 -->
  <circle cx="128" cy="128" r="120" fill="url(#grad1)" stroke="#1F2937" stroke-width="4"/>
  
  <!-- 键盘图标 -->
  <rect x="64" y="96" width="128" height="80" rx="8" fill="#FFFFFF" opacity="0.9"/>
  
  <!-- 键盘按键 -->
  <rect x="72" y="104" width="12" height="12" rx="2" fill="#4F46E5"/>
  <rect x="88" y="104" width="12" height="12" rx="2" fill="#4F46E5"/>
  <rect x="104" y="104" width="12" height="12" rx="2" fill="#4F46E5"/>
  <rect x="120" y="104" width="12" height="12" rx="2" fill="#4F46E5"/>
  <rect x="136" y="104" width="12" height="12" rx="2" fill="#4F46E5"/>
  <rect x="152" y="104" width="12" height="12" rx="2" fill="#4F46E5"/>
  <rect x="168" y="104" width="12" height="12" rx="2" fill="#4F46E5"/>
  
  <rect x="72" y="120" width="12" height="12" rx="2" fill="#4F46E5"/>
  <rect x="88" y="120" width="12" height="12" rx="2" fill="#4F46E5"/>
  <rect x="104" y="120" width="12" height="12" rx="2" fill="#4F46E5"/>
  <rect x="120" y="120" width="12" height="12" rx="2" fill="#4F46E5"/>
  <rect x="136" y="120" width="12" height="12" rx="2" fill="#4F46E5"/>
  <rect x="152" y="120" width="12" height="12" rx="2" fill="#4F46E5"/>
  <rect x="168" y="120" width="12" height="12" rx="2" fill="#4F46E5"/>
  
  <rect x="72" y="136" width="12" height="12" rx="2" fill="#4F46E5"/>
  <rect x="88" y="136" width="12" height="12" rx="2" fill="#4F46E5"/>
  <rect x="104" y="136" width="12" height="12" rx="2" fill="#4F46E5"/>
  <rect x="120" y="136" width="32" height="12" rx="2" fill="#7C3AED"/>
  <rect x="156" y="136" width="12" height="12" rx="2" fill="#4F46E5"/>
  <rect x="172" y="136" width="12" height="12" rx="2" fill="#4F46E5"/>
  
  <rect x="72" y="152" width="20" height="12" rx="2" fill="#4F46E5"/>
  <rect x="96" y="152" width="64" height="12" rx="2" fill="#7C3AED"/>
  <rect x="164" y="152" width="20" height="12" rx="2" fill="#4F46E5"/>
  
  <!-- 标题文字 -->
  <text x="128" y="200" text-anchor="middle" fill="#FFFFFF" font-family="Arial, sans-serif" font-size="16" font-weight="bold">TACTICAL</text>
  <text x="128" y="220" text-anchor="middle" fill="#FFFFFF" font-family="Arial, sans-serif" font-size="12">KEYBOARD</text>
</svg>